<svg width="100.000000" height="100.000000" viewBox="0 0 100 100" fill="none" xmlns="http://www.w3.org/2000/svg" xmlns:xlink="http://www.w3.org/1999/xlink">
	<desc>
			Created with Pixso.
	</desc>
	<defs>
		<clipPath id="clip34_492">
			<rect id="sf-symbols/custom.wrench.and.screwdriver.circle.fill" rx="0.000000" width="70.333336" height="70.333336" transform="translate(14.833496 14.833008)" fill="white" fill-opacity="0"/>
		</clipPath>
	</defs>
	<rect id="Icon Container" rx="49.750000" width="99.500000" height="99.500000" transform="translate(0.250000 0.250000)" fill="#6B8E23" fill-opacity="1.000000"/>
	<rect id="sf-symbols/custom.wrench.and.screwdriver.circle.fill" rx="0.000000" width="70.333336" height="70.333336" transform="translate(14.833496 14.833008)" fill="#FFFFFF" fill-opacity="0"/>
	<g clip-path="url(#clip34_492)">
		<g opacity="0.000000">
			<path id="Vector" d="M13.33 13.33L86.66 13.33L86.66 86.66L13.33 86.66L13.33 13.33Z" fill="#000000" fill-opacity="1.000000" fill-rule="evenodd"/>
		</g>
		<path id="Vector" d="M86.66 49.97C86.66 70.15 70.2 86.62 49.98 86.62C29.79 86.62 13.33 70.15 13.33 49.97C13.33 29.79 29.79 13.33 49.98 13.33C70.2 13.33 86.66 29.79 86.66 49.97ZM53.52 31.99C50.93 34.56 50.04 38.2 50.8 41.58L41.25 32.01C38.51 29.27 35.53 29.27 32.84 31.94L30.15 34.64C27.48 37.32 27.49 40.28 30.22 43.01L40.09 52.91C36.21 55.42 33.6 56.42 31.43 58.57C28.3 61.68 28.23 66.09 31.47 69.36C34.73 72.59 39.15 72.51 42.24 69.38C45 66.6 45.96 63.03 50.55 57.05L57.93 64.42L58.07 66.14C58.13 66.79 58.56 67.46 59.19 67.83L65.04 71.3C65.68 71.67 66.28 71.71 66.75 71.24L69.48 68.5C69.93 68.05 69.87 67.45 69.5 66.8L66.06 60.98C65.68 60.34 65.02 59.92 64.36 59.86L62.64 59.72L54.88 51.97C55.61 51.17 56.44 50.31 57.34 49.42C61.2 51.08 65.79 50.39 68.85 47.32C72.3 43.9 72.8 38.42 70.05 34.15L65.09 39.13C64.62 39.59 64.1 39.6 63.62 39.14L61.73 37.25C61.24 36.74 61.22 36.23 61.68 35.76L66.65 30.79C62.41 28.04 56.95 28.54 53.52 31.99ZM53.78 47.03C54.07 47.33 54.39 47.62 54.71 47.85C43.06 59.84 43.92 63.25 40.01 67.17C38.18 68.99 35.68 69.1 33.69 67.14C31.72 65.14 31.83 62.65 33.66 60.81C37.59 56.92 40.99 57.77 52.97 46.11C53.22 46.44 53.49 46.75 53.78 47.03ZM34.73 64.07C34.73 65.21 35.66 66.13 36.8 66.13C37.94 66.13 38.86 65.21 38.86 64.07C38.86 62.92 37.94 62 36.8 62C35.66 62 34.73 62.92 34.73 64.07ZM50.55 57.05C50.72 56.82 50.91 56.58 51.12 56.32C50.92 56.57 50.73 56.81 50.55 57.05ZM52.09 55.12C52.16 55.03 52.25 54.93 52.34 54.82L52.09 55.12ZM53.49 53.49C53.66 53.29 53.84 53.09 54.05 52.87C53.86 53.08 53.67 53.29 53.49 53.49ZM41.14 52.21C41.22 52.16 41.31 52.1 41.39 52.04C41.3 52.1 41.22 52.16 41.14 52.21ZM42.58 51.2L42.78 51.05C42.71 51.1 42.64 51.15 42.58 51.2ZM44.1 50.05L44.25 49.93C44.2 49.98 44.14 50.02 44.1 50.05ZM45.8 48.67L45.84 48.64C45.83 48.65 45.81 48.66 45.8 48.67ZM61.62 32.16L59.35 34.45C58 35.78 58.05 37.5 59.43 38.87L62 41.4C63.36 42.77 65.08 42.79 66.38 41.5L68.67 39.17C68.98 41.36 68.3 43.58 66.7 45.17C63.8 48.07 59 47.93 55.94 44.89C52.88 41.83 52.76 37.03 55.67 34.14C57.26 32.56 59.48 31.87 61.62 32.16ZM47.48 47.22L47.64 47.08C47.58 47.13 47.53 47.17 47.48 47.22ZM35.57 38.54L42.35 45.33C42.73 45.7 42.72 46.28 42.35 46.64C41.98 47 41.38 47.02 41 46.64L34.24 39.89C33.86 39.51 33.88 38.89 34.25 38.53C34.62 38.18 35.22 38.19 35.57 38.54ZM49.32 45.52L49.48 45.37C49.43 45.43 49.37 45.48 49.32 45.52ZM38.1 36.03L44.87 42.79C45.25 43.16 45.24 43.76 44.85 44.15C44.52 44.48 43.89 44.52 43.52 44.14L36.77 37.35C36.4 36.98 36.39 36.38 36.79 36.02C37.15 35.67 37.72 35.66 38.1 36.03ZM51.41 43.49C51.31 43.28 51.23 43.06 51.16 42.85L51.41 43.49ZM51.1 42.67C51.04 42.5 50.98 42.32 50.94 42.15L51.1 42.67Z" fill="#FFFFFF" fill-opacity="0.850000" fill-rule="nonzero"/>
	</g>
</svg>
