<svg width="100.000000" height="100.000000" viewBox="0 0 100 100" fill="none" xmlns="http://www.w3.org/2000/svg" xmlns:xlink="http://www.w3.org/1999/xlink">
	<desc>
			Created with Pixso.
	</desc>
	<defs>
		<clipPath id="clip34_480">
			<rect id="sf-symbols/custom.map.circle.fill" rx="0.000000" width="70.333336" height="70.333336" transform="translate(14.833496 14.833008)" fill="white" fill-opacity="0"/>
		</clipPath>
	</defs>
	<rect id="Icon Container" rx="49.750000" width="99.500000" height="99.500000" transform="translate(0.250000 0.250000)" fill="#6B8E23" fill-opacity="1.000000"/>
	<rect id="sf-symbols/custom.map.circle.fill" rx="0.000000" width="70.333336" height="70.333336" transform="translate(14.833496 14.833008)" fill="#FFFFFF" fill-opacity="0"/>
	<g clip-path="url(#clip34_480)">
		<g opacity="0.000000">
			<path id="Vector" d="M13.33 13.33L86.66 13.33L86.66 86.66L13.33 86.66L13.33 13.33Z" fill="#000000" fill-opacity="1.000000" fill-rule="evenodd"/>
		</g>
		<path id="Vector" d="M86.66 49.97C86.66 70.15 70.2 86.62 49.98 86.62C29.79 86.62 13.33 70.15 13.33 49.97C13.33 29.79 29.79 13.33 49.98 13.33C70.2 13.33 86.66 29.79 86.66 49.97ZM44.97 62.95L53.26 67.6C53.8 67.91 54.23 68.13 54.81 68.25L54.81 37.84L46.78 33.04C46.09 32.64 45.49 32.34 44.97 32.2L44.97 62.95ZM64.4 33.18L57.53 36.98L57.53 68.12C57.75 68.05 58.01 67.95 58.25 67.81L67.21 62.74C68.58 61.98 69.18 60.98 69.18 59.5L69.18 35.32C69.18 33.5 68 32.64 66.34 32.64C65.73 32.64 65.04 32.83 64.4 33.18ZM40.64 33.02L32.69 37.56C31.41 38.28 30.81 39.28 30.81 40.75L30.81 65.16C30.81 66.89 31.95 67.82 33.46 67.82C34.03 67.82 34.6 67.65 35.21 67.31L42.26 63.49L42.26 32.3C41.8 32.44 41.25 32.68 40.64 33.02Z" fill="#FFFFFF" fill-opacity="0.850000" fill-rule="nonzero"/>
	</g>
</svg>
