<svg width="100.000000" height="100.000000" viewBox="0 0 100 100" fill="none" xmlns="http://www.w3.org/2000/svg" xmlns:xlink="http://www.w3.org/1999/xlink">
	<desc>
			Created with Pixso.
	</desc>
	<defs>
		<clipPath id="clip34_486">
			<rect id="sf-symbols/custom.mappin.and.ellipse.circle.fill" rx="0.000000" width="70.333336" height="70.333336" transform="translate(14.833496 14.833008)" fill="white" fill-opacity="0"/>
		</clipPath>
	</defs>
	<rect id="Icon Container" rx="49.750000" width="99.500000" height="99.500000" transform="translate(0.250000 0.250000)" fill="#6B8E23" fill-opacity="1.000000"/>
	<rect id="sf-symbols/custom.mappin.and.ellipse.circle.fill" rx="0.000000" width="70.333336" height="70.333336" transform="translate(14.833496 14.833008)" fill="#FFFFFF" fill-opacity="0"/>
	<g clip-path="url(#clip34_486)">
		<g opacity="0.000000">
			<path id="Vector" d="M13.33 13.33L86.66 13.33L86.66 86.66L13.33 86.66L13.33 13.33Z" fill="#000000" fill-opacity="1.000000" fill-rule="evenodd"/>
		</g>
		<path id="Vector" d="M86.66 49.97C86.66 70.15 70.2 86.62 49.98 86.62C29.79 86.62 13.33 70.15 13.33 49.97C13.33 29.79 29.79 13.33 49.98 13.33C70.2 13.33 86.66 29.79 86.66 49.97ZM55.24 56.16C55.24 56.37 55.23 56.58 55.22 56.78C61.01 57.46 64.93 59.29 64.93 61.6C64.93 64.57 58.51 66.73 49.99 66.73C41.47 66.73 35.06 64.59 35.06 61.6C35.06 59.28 38.98 57.45 44.78 56.78C44.77 56.58 44.76 56.37 44.76 56.16L44.76 53.11C36.31 54.03 30.77 57.23 30.77 61.6C30.77 66.83 38.68 70.4 50.01 70.4C61.32 70.4 69.23 66.83 69.23 61.6C69.23 57.23 63.69 54.02 55.24 53.11L55.24 56.16ZM42.69 36.75C42.69 40.11 44.93 42.94 48.03 43.82L48.03 55.72C48.03 60 49.21 62.98 50.02 62.98C50.81 62.98 51.99 60.02 51.99 55.72L51.99 43.82C55.09 42.96 57.35 40.11 57.35 36.75C57.35 32.69 54.1 29.39 50.02 29.39C45.94 29.39 42.69 32.69 42.69 36.75ZM50.43 34.62C50.43 35.98 49.3 37.15 47.92 37.15C46.59 37.15 45.41 35.98 45.41 34.62C45.41 33.26 46.59 32.12 47.92 32.12C49.3 32.12 50.43 33.26 50.43 34.62Z" fill="#FFFFFF" fill-opacity="0.850000" fill-rule="nonzero"/>
	</g>
</svg>
